<?xml version="1.0" standalone="no"?>
<!DOCTYPE svg PUBLIC "-//W3C//DTD SVG 20010904//EN"
 "http://www.w3.org/TR/2001/REC-SVG-20010904/DTD/svg10.dtd">
<svg version="1.0" xmlns="http://www.w3.org/2000/svg"
 width="225.000000pt" height="225.000000pt" viewBox="0 0 225.000000 225.000000"
 preserveAspectRatio="xMidYMid meet">
<metadata>
Created by potrace 1.11, written by Peter Selinger 2001-2013
</metadata>
<g transform="translate(0.000000,225.000000) scale(0.100000,-0.100000)"
fill="#000000" stroke="none">
<path d="M1805 2056 c-65 -29 -105 -94 -105 -171 0 -109 76 -185 185 -185 60
0 103 19 142 63 77 88 49 232 -57 288 -41 22 -121 24 -165 5z"/>
<path d="M940 1860 c-465 -121 -703 -631 -496 -1065 18 -38 43 -81 54 -95 l21
-25 101 101 101 101 -20 34 c-11 19 -27 63 -35 99 -83 352 222 657 574 574 36
-8 80 -24 99 -35 l34 -20 101 101 101 101 -25 21 c-40 34 -159 86 -244 108
-105 27 -262 26 -366 0z"/>
<path d="M1627 1472 l-98 -99 20 -34 c11 -19 27 -63 35 -99 83 -352 -222 -657
-574 -574 -36 8 -80 24 -99 35 l-34 20 -101 -101 -101 -101 25 -21 c14 -11 57
-36 95 -54 267 -128 589 -88 816 99 260 216 344 596 199 905 -31 67 -67 122
-78 122 -4 0 -51 -44 -105 -98z"/>
<path d="M285 536 c-37 -17 -80 -62 -94 -99 -17 -44 -13 -118 8 -157 56 -106
200 -134 288 -57 44 38 63 82 63 141 0 111 -76 187 -187 186 -26 -1 -61 -7
-78 -14z"/>
</g>
</svg>
